<?xml version="1.0" encoding="UTF-8" standalone="no"?>
<svg
   xmlns:dc="http://purl.org/dc/elements/1.1/"
   xmlns:cc="http://creativecommons.org/ns#"
   xmlns:rdf="http://www.w3.org/1999/02/22-rdf-syntax-ns#"
   xmlns:svg="http://www.w3.org/2000/svg"
   xmlns="http://www.w3.org/2000/svg"
   xmlns:sodipodi="http://sodipodi.sourceforge.net/DTD/sodipodi-0.dtd"
   xmlns:inkscape="http://www.inkscape.org/namespaces/inkscape"
   sodipodi:docname="CART.svg"
   inkscape:version="1.0 (4035a4fb49, 2020-05-01)"
   id="svg8"
   version="1.1"
   viewBox="0 0 238.13797 232.33138"
   height="232.33138mm"
   width="238.13797mm">
  <defs
     id="defs2" />
  <sodipodi:namedview
     inkscape:window-maximized="1"
     inkscape:window-y="41"
     inkscape:window-x="-9"
     inkscape:window-height="1001"
     inkscape:window-width="1920"
     showgrid="false"
     inkscape:document-rotation="0"
     inkscape:current-layer="layer1"
     inkscape:document-units="mm"
     inkscape:cy="462.01083"
     inkscape:cx="535.65927"
     inkscape:zoom="0.35"
     inkscape:pageshadow="2"
     inkscape:pageopacity="0.0"
     borderopacity="1.0"
     bordercolor="#666666"
     pagecolor="#ffffff"
     id="base" />
  <metadata
     id="metadata5">
    <rdf:RDF>
      <cc:Work
         rdf:about="">
        <dc:format>image/svg+xml</dc:format>
        <dc:type
           rdf:resource="http://purl.org/dc/dcmitype/StillImage" />
        <dc:title></dc:title>
      </cc:Work>
    </rdf:RDF>
  </metadata>
  <g
     transform="translate(35.893181,-25.926301)"
     id="layer1"
     inkscape:groupmode="layer"
     inkscape:label="Layer 1">
    <path
       id="path24"
       d="m 38.896192,257.85677 c -6.29419,-1.52495 -11.80291,-7.11275 -13.31174,-13.50283 -0.5481,-2.32127 -0.5524,-6.07426 -0.01,-8.37217 1.18926,-5.03458 5.11975,-9.92291 9.8157,-12.20773 2.91751,-1.41952 3.83657,-1.59713 8.20898,-1.58637 3.59396,0.009 4.1372,0.0733 5.75245,0.68276 5.03115,1.89826 9.07348,5.83923 11.2591,10.97678 1.25889,2.95915 1.39379,8.50954 0.2877,11.8372 -1.60157,4.81833 -6.45758,9.97205 -10.85092,11.51618 -3.10227,1.09037 -8.13686,1.38661 -11.15168,0.65618 z m 112.917938,0.1603 c -4.05411,-0.87634 -8.18886,-3.49579 -10.61725,-6.72625 -2.72877,-3.63008 -3.79225,-6.77263 -3.79864,-11.22491 -0.005,-3.36246 0.26869,-4.56087 1.73264,-7.59164 4.5205,-9.35868 15.35461,-13.0968 24.72179,-8.52983 1.8333,0.89383 2.6901,1.5389 4.63585,3.49024 3.64216,3.65262 5.09071,6.85024 5.33423,11.77515 0.26792,5.41843 -1.31288,9.61844 -5.03478,13.37677 -2.51465,2.53928 -4.30056,3.74403 -7.05197,4.75715 -1.71366,0.631 -2.45361,0.74238 -5.42396,0.81639 -1.89177,0.0471 -3.91583,-0.0172 -4.49791,-0.14307 z M 37.911002,211.17561 c -3.03841,-0.15058 -3.94728,-0.30434 -6.08542,-1.0295 -3.04784,-1.03369 -5.32365,-2.24301 -7.87538,-4.18481 -4.64362,-3.53369 -9.10247,-9.64091 -10.21489,-13.99119 -0.22005,-0.86053 -0.94955,-5.25553 -1.62112,-9.76668 -1.16584,-7.83137 -2.6423296,-17.62228 -10.9724296,-72.76042 -2.02261002,-13.387913 -4.99839,-33.152288 -6.61284,-43.920829 -3.02868,-20.20149 -3.3867,-21.98297 -4.9682304,-24.72185 -1.15419,-1.99881 -2.61959,-3.3823 -4.1052,-3.87574 -1.079,-0.35839 -2.25767,-0.44138 -5.86666,-0.4131 -2.484,0.0195 -6.27828,-0.0707 -8.43173,-0.20033 -3.63196,-0.21867 -3.99035,-0.28771 -4.95163,-0.95387 -2.8428,-1.97006 -2.78739,-6.54253 0.1047,-8.64068 l 1.08937,-0.79031 10.18646,0.10232 c 9.59056,0.0963 10.28706,0.13587 11.90625,0.67563 3.6364404,1.21222 6.7652404,3.97147 8.6608004,7.63785 2.14705998,4.15285 3.01678,7.77512 4.81831,20.06758 0.57583,3.92906 1.23093,8.27484 1.45578,9.65729 0.22485,1.38245 0.40929,2.60284 0.40988,2.71198 5.3e-4,0.10914 41.3721796,0.19844 91.9368796,0.19844 h 91.935828 l 2.0574,0.81476 c 3.83155,1.517349 6.66328,3.632505 8.71794,6.511851 1.90338,2.667344 2.52325,4.626796 2.66244,8.416095 0.13556,3.690429 1.15141,-0.611013 -8.24814,34.925003 -3.31025,12.51479 -6.42763,23.94479 -6.9275,25.4 -1.86611,5.43253 -3.90718,8.82214 -7.7702,12.90395 -3.85442,4.07273 -7.42086,6.41543 -12.43859,8.17055 l -2.51354,0.8792 -71.613908,0.13565 c -39.38765,0.0746 -71.66557,0.19518 -71.72871,0.26794 -0.12003,0.13832 2.65878,17.36023 3.39396,21.03437 0.78342,3.91523 2.20605,6.45786 5.42376,9.69375 1.58839,1.59735 2.5042,2.26268 4.37031,3.175 l 2.36084,1.15417 21.69583,0.1631 c 11.93271,0.0897 42.699948,0.179 68.371628,0.19844 l 46.6758,0.0353 1.28796,0.82648 c 3.39593,2.17916 3.51825,6.39769 0.25763,8.88465 l -1.14353,0.8722 -66.05912,-0.0436 c -36.332508,-0.024 -67.666458,-0.12329 -69.630988,-0.22065 z"
       style="fill:#000000;stroke-width:0.264583" />
  </g>
</svg>
